<svg width="232" height="82" viewBox="0 0 232 82" fill="none" xmlns="http://www.w3.org/2000/svg">
<g filter="url(#filter0_d_225_4)">
<path d="M19.2 30.2H52.9V42.8H19.2V30.2ZM20.4 59H58.5V72H4.3V2H57.2V15H20.4V59ZM86.3898 72V2H116.69C122.957 2 128.357 3.03333 132.89 5.1C137.423 7.1 140.923 10 143.39 13.8C145.857 17.6 147.09 22.1333 147.09 27.4C147.09 32.6 145.857 37.1 143.39 40.9C140.923 44.6333 137.423 47.5 132.89 49.5C128.357 51.5 122.957 52.5 116.69 52.5H95.3898L102.59 45.4V72H86.3898ZM130.89 72L113.39 46.6H130.69L148.39 72H130.89ZM102.59 47.2L95.3898 39.6H115.79C120.79 39.6 124.523 38.5333 126.99 36.4C129.457 34.2 130.69 31.2 130.69 27.4C130.69 23.5333 129.457 20.5333 126.99 18.4C124.523 16.2667 120.79 15.2 115.79 15.2H95.3898L102.59 7.5V47.2ZM197.925 73.2C192.325 73.2 186.958 72.4667 181.825 71C176.692 69.4667 172.558 67.5 169.425 65.1L174.925 52.9C177.925 55.0333 181.458 56.8 185.525 58.2C189.658 59.5333 193.825 60.2 198.025 60.2C201.225 60.2 203.792 59.9 205.725 59.3C207.725 58.6333 209.192 57.7333 210.125 56.6C211.058 55.4667 211.525 54.1667 211.525 52.7C211.525 50.8333 210.792 49.3667 209.325 48.3C207.858 47.1667 205.925 46.2667 203.525 45.6C201.125 44.8667 198.458 44.2 195.525 43.6C192.658 42.9333 189.758 42.1333 186.825 41.2C183.958 40.2667 181.325 39.0667 178.925 37.6C176.525 36.1333 174.558 34.2 173.025 31.8C171.558 29.4 170.825 26.3333 170.825 22.6C170.825 18.6 171.892 14.9667 174.025 11.7C176.225 8.36666 179.492 5.73333 183.825 3.8C188.225 1.8 193.725 0.799999 200.325 0.799999C204.725 0.799999 209.058 1.33333 213.325 2.4C217.592 3.4 221.358 4.93333 224.625 7L219.625 19.3C216.358 17.4333 213.092 16.0667 209.825 15.2C206.558 14.2667 203.358 13.8 200.225 13.8C197.092 13.8 194.525 14.1667 192.525 14.9C190.525 15.6333 189.092 16.6 188.225 17.8C187.358 18.9333 186.925 20.2667 186.925 21.8C186.925 23.6 187.658 25.0667 189.125 26.2C190.592 27.2667 192.525 28.1333 194.925 28.8C197.325 29.4667 199.958 30.1333 202.825 30.8C205.758 31.4667 208.658 32.2333 211.525 33.1C214.458 33.9667 217.125 35.1333 219.525 36.6C221.925 38.0667 223.858 40 225.325 42.4C226.858 44.8 227.625 47.8333 227.625 51.5C227.625 55.4333 226.525 59.0333 224.325 62.3C222.125 65.5667 218.825 68.2 214.425 70.2C210.092 72.2 204.592 73.2 197.925 73.2Z" fill="white"/>
</g>
<defs>
<filter id="filter0_d_225_4" x="0.300049" y="0.800049" width="231.325" height="80.3999" filterUnits="userSpaceOnUse" color-interpolation-filters="sRGB">
<feFlood flood-opacity="0" result="BackgroundImageFix"/>
<feColorMatrix in="SourceAlpha" type="matrix" values="0 0 0 0 0 0 0 0 0 0 0 0 0 0 0 0 0 0 127 0" result="hardAlpha"/>
<feOffset dy="4"/>
<feGaussianBlur stdDeviation="2"/>
<feComposite in2="hardAlpha" operator="out"/>
<feColorMatrix type="matrix" values="0 0 0 0 0 0 0 0 0 0 0 0 0 0 0 0 0 0 0.25 0"/>
<feBlend mode="normal" in2="BackgroundImageFix" result="effect1_dropShadow_225_4"/>
<feBlend mode="normal" in="SourceGraphic" in2="effect1_dropShadow_225_4" result="shape"/>
</filter>
</defs>
</svg>
